<svg width="85" height="80" viewBox="0 0 81 84" fill="none" xmlns="http://www.w3.org/2000/svg">
<rect width="81" height="84" rx="40.5" fill="black"/>
<path d="M23.8864 35.8636L27.3409 45.6591H27.4773L30.9318 35.8636H32.4091L28.1364 47.5H26.6818L22.4091 35.8636H23.8864ZM34.0398 47.5V38.7727H35.3807V47.5H34.0398ZM34.7216 37.3182C34.4602 37.3182 34.2348 37.2292 34.0455 37.0511C33.8598 36.8731 33.767 36.6591 33.767 36.4091C33.767 36.1591 33.8598 35.9451 34.0455 35.767C34.2348 35.589 34.4602 35.5 34.7216 35.5C34.983 35.5 35.2064 35.589 35.392 35.767C35.5814 35.9451 35.6761 36.1591 35.6761 36.4091C35.6761 36.6591 35.5814 36.8731 35.392 37.0511C35.2064 37.2292 34.983 37.3182 34.7216 37.3182ZM41.4957 47.6818C40.6548 47.6818 39.9295 47.4962 39.3196 47.125C38.7135 46.75 38.2457 46.2273 37.9162 45.5568C37.5904 44.8826 37.4276 44.0985 37.4276 43.2045C37.4276 42.3106 37.5904 41.5227 37.9162 40.8409C38.2457 40.1553 38.7041 39.6212 39.2912 39.2386C39.8821 38.8523 40.5715 38.6591 41.3594 38.6591C41.8139 38.6591 42.2628 38.7348 42.706 38.8864C43.1491 39.0379 43.5526 39.2841 43.9162 39.625C44.2798 39.9621 44.5696 40.4091 44.7855 40.9659C45.0014 41.5227 45.1094 42.2083 45.1094 43.0227V43.5909H38.3821V42.4318H43.7457C43.7457 41.9394 43.6473 41.5 43.4503 41.1136C43.2571 40.7273 42.9806 40.4223 42.6207 40.1989C42.2647 39.9754 41.8442 39.8636 41.3594 39.8636C40.8253 39.8636 40.3632 39.9962 39.973 40.2614C39.5866 40.5227 39.2893 40.8636 39.081 41.2841C38.8726 41.7045 38.7685 42.1553 38.7685 42.6364V43.4091C38.7685 44.0682 38.8821 44.6269 39.1094 45.0852C39.3404 45.5398 39.6605 45.8864 40.0696 46.125C40.4787 46.3598 40.9541 46.4773 41.4957 46.4773C41.848 46.4773 42.1662 46.428 42.4503 46.3295C42.7382 46.2273 42.9863 46.0758 43.1946 45.875C43.4029 45.6705 43.5639 45.4167 43.6776 45.1136L44.973 45.4773C44.8366 45.9167 44.6075 46.303 44.2855 46.6364C43.9635 46.9659 43.5658 47.2235 43.0923 47.4091C42.6188 47.5909 42.0866 47.6818 41.4957 47.6818ZM49.1264 47.5L46.4673 38.7727H47.8764L49.7628 45.4545H49.8537L51.7173 38.7727H53.1491L54.9901 45.4318H55.081L56.9673 38.7727H58.3764L55.7173 47.5H54.3991L52.4901 40.7955H52.3537L50.4446 47.5H49.1264Z" fill="white"/>
</svg>
